<?xml version="1.0" encoding="UTF-8"?>
<svg width="800" height="600" xmlns="http://www.w3.org/2000/svg">
  <defs>
    <style>
      .bg { fill: #1e1e2e; }
      .border { stroke: #45475a; stroke-width: 2; fill: none; }
      .text { font-family: 'Monaco', 'Menlo', 'Courier New', monospace;
              font-size: 14px; }
      .header-bg { fill: #313244; }
      .header-text { fill: #cdd6f4; font-weight: bold; }
      .list-text { fill: #cdd6f4; }
      .selected-bg { fill: #45475a; }
      .selected-text { fill: #89b4fa; font-weight: bold; }
      .command-bar-bg { fill: #181825; }
      .command-text { fill: #f5e0dc; }
      .hint-text { fill: #6c7086; font-size: 12px; }
      .cursor { fill: #f5e0dc; }
    </style>
  </defs>

  <!-- Main background -->
  <rect class="bg" width="800" height="600" rx="8"/>
  <rect class="border" x="10" y="10" width="780" height="580" rx="8"/>

  <!-- Header -->
  <rect class="header-bg" x="12" y="12" width="776" height="36" rx="6"/>
  <text class="text header-text" x="24" y="35">
    Pods • namespace: default • 47 items
  </text>
  <text class="text hint-text" x="680" y="35">
    Last refresh: 2s ago
  </text>

  <!-- List area -->
  <g class="list-area">
    <!-- Column headers -->
    <text class="text list-text hint-text" x="24" y="70">NAME</text>
    <text class="text list-text hint-text" x="320" y="70">READY</text>
    <text class="text list-text hint-text" x="400" y="70">STATUS</text>
    <text class="text list-text hint-text" x="500" y="70">AGE</text>
    <text class="text list-text hint-text" x="580" y="70">NODE</text>

    <!-- List items -->
    <!-- Selected item with background -->
    <rect class="selected-bg" x="16" y="80" width="768" height="24" rx="4"/>
    <text class="text selected-text" x="24" y="97">&gt; nginx-abc123</text>
    <text class="text selected-text" x="320" y="97">1/1</text>
    <text class="text selected-text" x="400" y="97">Running</text>
    <text class="text selected-text" x="500" y="97">2h</text>
    <text class="text selected-text" x="580" y="97">node-1</text>

    <!-- Other items -->
    <text class="text list-text" x="32" y="121">redis-def456</text>
    <text class="text list-text" x="320" y="121">1/1</text>
    <text class="text list-text" x="400" y="121">Running</text>
    <text class="text list-text" x="500" y="121">1h</text>
    <text class="text list-text" x="580" y="121">node-2</text>

    <text class="text list-text" x="32" y="145">postgres-xyz789</text>
    <text class="text list-text" x="320" y="145">0/1</text>
    <text class="text list-text" x="400" y="145">Pending</text>
    <text class="text list-text" x="500" y="145">5m</text>
    <text class="text list-text" x="580" y="145">-</text>

    <text class="text list-text" x="32" y="169">app-worker-1</text>
    <text class="text list-text" x="320" y="169">2/2</text>
    <text class="text list-text" x="400" y="169">Running</text>
    <text class="text list-text" x="500" y="169">12h</text>
    <text class="text list-text" x="580" y="169">node-1</text>

    <text class="text list-text" x="32" y="193">app-worker-2</text>
    <text class="text list-text" x="320" y="193">2/2</text>
    <text class="text list-text" x="400" y="193">Running</text>
    <text class="text list-text" x="500" y="193">12h</text>
    <text class="text list-text" x="580" y="193">node-2</text>

    <text class="text list-text" x="32" y="217">api-gateway-1</text>
    <text class="text list-text" x="320" y="217">1/1</text>
    <text class="text list-text" x="400" y="217">Running</text>
    <text class="text list-text" x="500" y="217">3d</text>
    <text class="text list-text" x="580" y="217">node-3</text>

    <text class="text list-text" x="32" y="241">api-gateway-2</text>
    <text class="text list-text" x="320" y="241">1/1</text>
    <text class="text list-text" x="400" y="241">Running</text>
    <text class="text list-text" x="500" y="241">3d</text>
    <text class="text list-text" x="580" y="241">node-3</text>

    <text class="text list-text" x="32" y="265">metrics-server</text>
    <text class="text list-text" x="320" y="265">1/1</text>
    <text class="text list-text" x="400" y="265">Running</text>
    <text class="text list-text" x="500" y="265">7d</text>
    <text class="text list-text" x="580" y="265">node-1</text>

    <text class="text list-text hint-text" x="32" y="289">...</text>
  </g>

  <!-- Command Bar (active input) -->
  <rect class="command-bar-bg" x="12" y="550" width="776" height="32" rx="6"/>
  <text class="text command-text" x="24" y="571">/yaml</text>
  <!-- Cursor -->
  <rect class="cursor" x="65" y="558" width="8" height="16"/>
  <text class="text hint-text" x="740" y="571">[? /]</text>
</svg>
